Coordinates
version=1
nRows=16
nColumns=29
inDegrees=yes

Units are S.I. units (second, meters, Newtons, ...)
Angles are in degrees.

endheader
time	pelvis_rz	pelvis_rx	pelvis_ry	pelvis_tx	pelvis_ty	pelvis_tz	r_hip_flexion	r_hip_adduction	r_hip_rotation	r_knee_angle	tp_r3	tp_tx	tp_ty	tp_tz	r_ankle_angle	r_subt_angle	r_mtp_angle	l_hip_flexion	l_hip_adduction	l_hip_rotation	l_knee_angle	ltp_r3	ltp_tx	ltp_ty	ltp_tz	l_ankle_angle	l_subt_angle	l_mtp_angle
      0.04600000	     14.09642847	     -0.47998046	    108.02532714	     -0.21215888	      0.01215174	      1.97713667	      9.82588287	      9.88846087	      7.56522726	     -4.56509683	      4.85763582	      0.04908902	     -0.02251314	      0.00240000	      3.94542789	     -4.33783301	      0.00000000	     -5.59382194	    -16.01196349	    -19.71639184	     -9.94393963	      9.10361586	      0.04840756	     -0.02230222	     -0.00240000	    -16.34748662	    -19.70402711	      0.00000000
      0.08600000	     12.93410521	     -0.85280180	    107.18013851	     -0.20929065	      0.01122528	      1.98184916	      8.71077066	      9.79116508	      7.40007042	     -6.43112422	      6.50660962	      0.04886234	     -0.02244035	      0.00240000	      7.12661945	     -4.73413494	      0.00000000	     -5.31749797	    -14.65052103	    -19.72038947	    -10.34951340	      9.36399890	      0.04835269	     -0.02228619	     -0.00240000	    -16.00592907	    -19.71587802	      0.00000000
      0.12600000	     12.94420548	     -0.78259796	    107.10732400	     -0.20928280	      0.01136538	      1.98191293	      8.65667075	      9.75903204	      6.28461542	     -6.43787217	      6.51221326	      0.04886150	     -0.02244009	      0.00240000	      7.34783550	     -3.18246258	      0.00000000	     -5.40873410	    -14.66841151	    -19.71987006	    -10.34775632	      9.36288646	      0.04835293	     -0.02228625	     -0.00240000	    -16.06406559	    -19.71780682	      0.00000000
      0.16600000	     12.88030333	     -0.84228842	    106.78466491	     -0.20866182	      0.01129085	      1.98276757	      8.40875066	      9.88596124	      6.15033890	     -6.71165507	      6.73765586	      0.04882736	     -0.02242937	      0.00240000	      8.01993704	     -3.31129046	      0.00000000	     -5.36256391	    -14.55659059	    -19.72043287	    -10.45945197	      9.43325875	      0.04833773	     -0.02228184	     -0.00240000	    -16.06321783	    -19.71934817	      0.00000000
      0.20600000	     12.28087860	     -1.11387258	    106.36395327	     -0.20733391	      0.01039263	      1.98488447	      7.74879914	      9.47430323	      6.13015277	     -7.03790818	      7.00102483	      0.04878640	     -0.02241659	      0.00240000	     10.13070092	     -3.44312525	      0.00000000	     -5.26728476	    -13.75211078	    -19.72703766	    -10.48925214	      9.45193857	      0.04833367	     -0.02228066	     -0.00240000	    -15.35832541	    -19.72557731	      0.00000000
      0.24600000	     11.81472459	     -1.45220077	    105.73095834	     -0.20552929	      0.00924447	      1.98735858	      6.64350659	      9.29429119	      6.06224136	     -7.77478154	      7.57491454	      0.04869271	     -0.02238767	      0.00240000	     12.95892154	     -3.39826804	      0.00000000	     -5.05050823	    -13.06606891	    -19.73471083	    -10.64004421	      9.54581605	      0.04831309	     -0.02227469	     -0.00240000	    -14.64423659	    -19.72951833	      0.00000000
      0.28600000	     10.23206202	     -0.86300028	    103.80943248	     -0.20140892	      0.00910140	      1.99353818	      3.60544707	      7.29568478	     -7.65636136	    -15.26104887	     11.95037137	      0.04764904	     -0.02209081	      0.00240000	      1.35718533	      1.98811729	      0.00000000	     -6.19358496	    -11.28482345	    -19.74926761	    -10.78531495	      9.63527008	      0.04829319	     -0.02226894	     -0.00240000	    -13.91515694	    -19.74328819	      0.00000000
      0.32600000	     10.25798919	     -1.00697609	    103.79064982	     -0.20137795	      0.00892036	      1.99343175	      3.76400607	      7.27038287	     -7.72425942	    -15.28631711	     11.96120223	      0.04764523	     -0.02208980	      0.00240000	      1.41112381	      2.16991633	      0.00000000	     -6.04470838	    -11.27286977	    -19.74940388	    -10.79257438	      9.63971443	      0.04829219	     -0.02226866	     -0.00240000	    -13.93025012	    -19.74347082	      0.00000000
      0.36600000	      7.15333887	     -2.11699584	    101.51858411	     -0.19461956	      0.00475352	      1.99932730	      1.38966882	      3.78922834	     -8.27732265	    -18.12214626	     13.03788605	      0.04720518	     -0.02197589	      0.00240000	     -0.40020911	      0.52885412	      0.00000000	     -5.65150713	     -7.50900042	    -19.75398945	    -10.94216048	      9.73076871	      0.04827164	     -0.02226273	     -0.00240000	    -13.73604797	    -19.75024772	      0.00000000
      0.40600000	      3.89981233	     -2.20127208	     98.30988320	     -0.18625681	      0.00160992	      2.00802672	     -2.26646417	     -0.04592117	     -9.93460012	    -19.82858872	     13.56553748	      0.04692832	     -0.02190694	      0.00240000	    -27.93063066	    -14.95875333	      0.00000000	     -6.03617284	     -3.71619284	    -19.75911369	    -11.17275227	      9.86914634	      0.04823981	     -0.02225360	     -0.00240000	    -13.77954438	    -19.75503121	      0.00000000
      0.44600000	     -1.36870578	     -2.88756279	     92.77811052	     -0.17080318	     -0.00583002	      2.02542748	     -5.53884151	     -6.18435336	     -6.41499039	    -20.31418560	     13.70105629	      0.04684786	     -0.02188727	      0.00240000	    -27.49847654	    -13.44956879	      0.00000000	     -4.91094361	      2.40367645	    -19.74883250	    -11.82921427	     10.25011361	      0.04814836	     -0.02222757	     -0.00240000	    -12.15294587	    -19.73875389	      0.00000000
      0.48600000	     -6.31162947	     -2.76737498	     87.34376181	     -0.15524717	     -0.01322640	      2.04612746	     -8.14937995	    -12.45469404	     -4.18184581	    -19.70502790	     13.53006215	      0.04694867	     -0.02191195	      0.00240000	    -27.62711006	    -11.86127504	      0.00000000	     -3.41773291	      7.85984400	    -19.73585747	    -12.54120483	     10.64215647	      0.04804770	     -0.02219929	     -0.00240000	    -10.35173928	    -19.71136498	      0.00000000
      0.52600000	    -10.80746346	     -1.71610582	     81.80596509	     -0.13753537	     -0.01994654	      2.07632587	    -10.23586343	    -18.53356307	     -2.22969358	    -18.03789944	     13.00964013	      0.04721861	     -0.02197929	      0.00240000	    -27.74032710	     -9.83497074	      0.00000000	     -1.38124682	     12.46624581	    -19.72615174	    -13.33860019	     11.05597044	      0.04793315	     -0.02216756	     -0.00240000	     -8.32606797	    -19.67366607	      0.00000000
      0.56600000	    -10.77471456	     -1.47744636	     81.82269860	     -0.13753049	     -0.01965840	      2.07649565	    -10.50195043	    -18.54187948	     -2.32608017	    -18.01709624	     13.00263886	      0.04722193	     -0.02198013	      0.00240000	    -27.73351836	     -9.80428509	      0.00000000	     -1.63745829	     12.46928588	    -19.72608962	    -13.32878325	     11.05103653	      0.04793457	     -0.02216796	     -0.00240000	     -8.28920343	    -19.67317611	      0.00000000
      0.60600000	    -13.14658295	     -0.49610165	     77.40182831	     -0.12260067	     -0.02539583	      2.10720055	    -11.61893214	    -22.41630166	     -1.17950165	    -16.46106889	     12.43979678	      0.04746595	     -0.02204271	      0.00240000	    -28.04120979	     -8.15726381	      0.00000000	      0.76470316	     14.55592034	    -19.72089945	    -14.33198639	     11.53578750	      0.04778775	     -0.02212795	     -0.00240000	     -5.09316061	    -19.59819237	      0.00000000
      0.64600000	    -14.18708105	      0.48145853	     74.25666774	     -0.10851294	     -0.02901184	      2.14579906	    -12.34937127	    -24.42821050	     -0.24086938	    -14.88210856	     11.78514930	      0.04770593	     -0.02210597	      0.00240000	    -28.06508763	     -7.17185283	      0.00000000	      3.37215365	     14.78104212	    -19.71824895	    -15.28709676	     11.96153638	      0.04764511	     -0.02208977	     -0.00240000	     -1.72010170	    -19.47060062	      0.00000000
